<svg xmlns="http://www.w3.org/2000/svg" version="1.1" xmlns:xlink="http://www.w3.org/1999/xlink" width="512" height="512" x="0" y="0" viewBox="0 0 512 512" style="enable-background:new 0 0 512 512" xml:space="preserve" class=""><g><path fill="#e6f0f2" d="m256 71.98 43 119.069-43 302.181H123.07V71.98z" opacity="1" data-original="#e6f0f2" class=""></path><path fill="#cfdfe6" d="M256 71.98h128.96v421.25H256z" opacity="1" data-original="#cfdfe6"></path><g fill="#624d8c"><path d="m256 0 48.534 41.441L256 90H134v51c0 8.28-6.72 15-15 15s-15-6.72-15-15V40.8C104 18.3 122.3 0 144.8 0zM256 482l14.036 14.017L256 512H144.8c-22.5 0-40.8-18.3-40.8-40.8V371c0-8.28 6.72-15 15-15s15 6.72 15 15v100.2c0 5.96 4.84 10.8 10.8 10.8z" fill="#624d8c" opacity="1" data-original="#624d8c"></path></g><path fill="#493373" d="M408 40.8V141c0 8.28-6.72 15-15 15s-15-6.72-15-15V90H256V0h111.2C389.7 0 408 18.3 408 40.8zM408 371v100.2c0 22.5-18.3 40.8-40.8 40.8H256v-30h111.2c5.96 0 10.8-4.84 10.8-10.8V371c0-8.28 6.72-15 15-15s15 6.72 15 15z" opacity="1" data-original="#493373"></path><path fill="#80bfff" d="m256 126 54.404 94.208L256 386H81c-8.28 0-15-6.72-15-15V141c0-8.28 6.72-15 15-15z" opacity="1" data-original="#80bfff" class=""></path><path fill="#6699ff" d="M446 141v230c0 8.28-6.72 15-15 15H256V126h175c8.28 0 15 6.72 15 15z" opacity="1" data-original="#6699ff" class=""></path><g fill="#e6f0f2"><path d="M201.606 213.894c-5.857-5.857-15.355-5.857-21.213 0l-31.5 31.5c-5.858 5.857-5.858 15.355 0 21.213l31.5 31.5c2.929 2.929 6.768 4.394 10.606 4.394s7.678-1.465 10.606-4.394c5.858-5.857 5.858-15.355 0-21.213L180.713 256l20.894-20.894c5.858-5.857 5.858-15.355-.001-21.212zM256 195.74l9.173 34.849L256 316.26c-2.21 5.89-7.87 9.71-14.03 9.71-1.22 0-2.47-.15-3.72-.47-8.02-2.05-12.87-10.22-10.82-18.24l28.07-109.94c.14-.54.3-1.07.5-1.58z" fill="#e6f0f2" opacity="1" data-original="#e6f0f2" class=""></path></g><path fill="#624d8c" d="m256 422 12.008 15L256 452h-25.5c-8.28 0-15-6.72-15-15s6.72-15 15-15z" opacity="1" data-original="#624d8c"></path><path fill="#cfdfe6" d="M284.57 204.74 256.5 314.68c-.14.54-.3 1.07-.5 1.58V195.74c2.65-7.07 10.26-11.16 17.75-9.24 8.02 2.05 12.87 10.22 10.82 18.24zM363.11 266.61l-31.5 31.5c-2.93 2.93-6.77 4.39-10.61 4.39s-7.68-1.46-10.61-4.39c-5.85-5.86-5.85-15.36 0-21.22l20.9-20.89-20.9-20.89c-5.85-5.86-5.85-15.36 0-21.22 5.86-5.85 15.36-5.85 21.22 0l31.5 31.5c5.85 5.86 5.85 15.36 0 21.22z" opacity="1" data-original="#cfdfe6"></path><path fill="#493373" d="M296.5 437c0 8.28-6.72 15-15 15H256v-30h25.5c8.28 0 15 6.72 15 15z" opacity="1" data-original="#493373"></path></g></svg>