<svg xmlns="http://www.w3.org/2000/svg" version="1.1" xmlns:xlink="http://www.w3.org/1999/xlink" width="512" height="512" x="0" y="0" viewBox="0 0 512 512" style="enable-background:new 0 0 512 512" xml:space="preserve" class=""><g><path fill="#4e5f7f" d="M210.875 0h30v77.75h-30z" opacity="1" data-original="#4e5f7f" class=""></path><path fill="#3e4665" d="M271.125 0h30v77.75h-30z" opacity="1" data-original="#3e4665"></path><path fill="#4e5f7f" d="M210.875 434.25h30V512h-30z" opacity="1" data-original="#4e5f7f" class=""></path><path fill="#3e4665" d="M271.125 434.25h30V512h-30zM436.75 241H512v30h-75.25z" opacity="1" data-original="#3e4665"></path><g fill="#4e5f7f"><path d="M0 241h75.25v30H0zM0 150.625h99.437v30H0zM0 331.375h99.437v30H0z" fill="#4e5f7f" opacity="1" data-original="#4e5f7f" class=""></path></g><path fill="#3e4665" d="M412.563 150.625H512v30h-99.437zM412.563 331.375H512v30h-99.437z" opacity="1" data-original="#3e4665"></path><path fill="#4e5f7f" d="M160.786 119.608 119.295 47H44.621V17h92.084l50.128 87.724z" opacity="1" data-original="#4e5f7f" class=""></path><path fill="#3e4665" d="m351.214 119.608-26.047-14.884L375.295 17h92.084v30h-74.674z" opacity="1" data-original="#3e4665"></path><circle cx="32" cy="32" r="32" fill="#18b2ff" opacity="1" data-original="#18b2ff" class=""></circle><path fill="#4e5f7f" d="M136.705 495H44.621v-30h74.674l41.491-72.608 26.047 14.884z" opacity="1" data-original="#4e5f7f" class=""></path><path fill="#3e4665" d="M467.379 495h-92.084l-50.128-87.724 26.047-14.884L392.705 465h74.674z" opacity="1" data-original="#3e4665"></path><circle cx="480" cy="32" r="32" fill="#1588df" opacity="1" data-original="#1588df" class=""></circle><circle cx="32" cy="480" r="32" fill="#18b2ff" opacity="1" data-original="#18b2ff" class=""></circle><circle cx="256" cy="256" r="192" fill="#ecf2ff" opacity="1" data-original="#ecf2ff" class=""></circle><path fill="#dae6fe" d="M448 256c0 106.04-85.96 192-192 192V64c106.04 0 192 85.96 192 192z" opacity="1" data-original="#dae6fe" class=""></path><path fill="#18b2ff" d="M286.1 195.76H241v120.48h30v-30.18h15.1c24.9 0 45.15-20.26 45.15-45.15 0-24.9-20.25-45.15-45.15-45.15zm0 60.3H271v-30.3h15.1c8.35 0 15.15 6.79 15.15 15.15 0 8.35-6.8 15.15-15.15 15.15z" opacity="1" data-original="#18b2ff" class=""></path><path fill="#1588df" d="M286.1 195.76H256v120.48h15v-30.18h15.1c24.9 0 45.15-20.26 45.15-45.15 0-24.9-20.25-45.15-45.15-45.15zm0 60.3H271v-30.3h15.1c8.35 0 15.15 6.79 15.15 15.15 0 8.35-6.8 15.15-15.15 15.15z" opacity="1" data-original="#1588df" class=""></path><path fill="#18b2ff" d="M171.625 195.757c-24.882 0-45.125 20.243-45.125 45.125v75.361h30v-30.187h30.25v30.193h30v-75.368c0-24.881-20.243-45.124-45.125-45.124zm-15.125 60.3v-15.175c0-8.34 6.785-15.125 15.125-15.125s15.125 6.785 15.125 15.125v15.175z" opacity="1" data-original="#18b2ff" class=""></path><path fill="#1588df" d="M350.859 195.75h30v120.5h-30z" opacity="1" data-original="#1588df" class=""></path><circle cx="480" cy="480" r="32" fill="#1588df" opacity="1" data-original="#1588df" class=""></circle></g></svg>