<svg xmlns="http://www.w3.org/2000/svg" version="1.1" xmlns:xlink="http://www.w3.org/1999/xlink" width="512" height="512" x="0" y="0" viewBox="0 0 14249 15442" style="enable-background:new 0 0 512 512" xml:space="preserve" fill-rule="evenodd" class=""><g><path fill="#00dcab" d="m7804 187 5505 3179c432 249 680 678 680 1177v6356c0 499-248 928-680 1177l-5505 3179c-432 249-927 249-1359 0L940 12076c-433-249-680-678-680-1177V4543c0-499 247-928 680-1177L6445 187c432-249 927-249 1359 0z" opacity="1" data-original="#00dcab" class=""></path><path fill="#1c3b5c" d="M1101 4074h12046c243 0 442 199 442 442v7805c0 243-199 441-442 441H1101c-243 0-441-198-441-441V4516c0-243 198-442 441-442z" opacity="1" data-original="#1c3b5c"></path><path fill="#e1e3e8" d="M347 14315h13555c191 0 347-156 347-347v-564c0-191-156-347-347-347H347c-191 0-347 156-347 347v564c0 191 156 347 347 347z" opacity="1" data-original="#e1e3e8"></path><path fill="#53b4ed" d="M1287 4682h11675v7472H1287z" opacity="1" data-original="#53b4ed" class=""></path><g fill="#205081"><path d="M2672 12484h1015v573H2672zM10561 12484h1016v573h-1016z" fill="#205081" opacity="1" data-original="#205081"></path></g><g fill="#c5c7cb"><path d="M5441 13057h3367v399H5441zM14076 13986H172c-62 0-121-17-172-46v28c0 191 156 347 347 347h13555c191 0 347-156 347-347v-28c-51 29-110 46-173 46z" fill="#c5c7cb" opacity="1" data-original="#c5c7cb"></path></g><g fill="#fff"><path d="M8901 5467h1722v173H8901zM10900 5467h919v173h-919zM10098 6141h1145v173h-1145zM8901 6141h919v173h-919zM8901 6834h1722v173H8901zM10900 6834h919v173h-919z" fill="#ffffff" opacity="1" data-original="#ffffff" class=""></path></g><path fill="#ffc42e" d="M8901 7766h919v173h-919z" opacity="1" data-original="#ffc42e" class=""></path><path fill="#ffffff" d="M1937 4011h6142v8143H1937z" opacity="1" data-original="#ffffff" class=""></path><path fill="#205081" d="M2402 3082h5213c256 0 465 209 465 465v464H1937v-464c0-256 209-465 465-465z" opacity="1" data-original="#205081"></path><rect width="3025" height="272" x="2499" y="3410" fill="#55ace0" rx="214" ry="136" opacity="1" data-original="#55ace0"></rect><circle cx="6257" cy="3547" r="170" fill="#ff576b" opacity="1" data-original="#ff576b"></circle><circle cx="6860" cy="3547" r="170" fill="#ffc42e" opacity="1" data-original="#ffc42e" class=""></circle><circle cx="7464" cy="3547" r="170" fill="#53b4ed" opacity="1" data-original="#53b4ed" class=""></circle><path fill="#00dcab" d="M2344 7244h1394v840H2344z" opacity="1" data-original="#00dcab" class=""></path><g fill="#afb0b5"><path d="M2344 8279h943v123h-943zM2344 8535h1117v62H2344zm0 369h840v61h-840zm0-185h1117v62H2344z" fill="#afb0b5" opacity="1" data-original="#afb0b5"></path></g><path fill="#ff576b" d="M4312 7244h1394v840H4312z" opacity="1" data-original="#ff576b"></path><g fill="#afb0b5"><path d="M4312 8279h943v123h-943zM4312 8535h1117v62H4312zm0 369h840v61h-840zm0-185h1117v62H4312z" fill="#afb0b5" opacity="1" data-original="#afb0b5"></path></g><path fill="#ffc42e" d="M6279 7244h1394v840H6279z" opacity="1" data-original="#ffc42e" class=""></path><g fill="#afb0b5"><path d="M6279 8279h943v123h-943zM6279 8535h1117v62H6279zm0 369h841v61h-841zm0-185h1117v62H6279z" fill="#afb0b5" opacity="1" data-original="#afb0b5"></path></g><path fill="#ffffff" d="M1937 4011h6142v922H1937z" opacity="1" data-original="#ffffff" class=""></path><path fill="#ffc42e" d="M1937 4933h6142v2059H1937z" opacity="1" data-original="#ffc42e" class=""></path><g fill="#ff576b"><circle cx="5008" cy="4402" r="221" fill="#ff576b" opacity="1" data-original="#ff576b"></circle><path d="M4840 4709h363.104v54.275H4840z" fill="#ff576b" opacity="1" data-original="#ff576b"></path></g><g fill="#fff"><path fill-rule="nonzero" d="M2580 5642c89 0 169 36 227 94s93 138 93 226c0 89-35 169-93 226v1c-58 57-138 93-227 93-88 0-168-36-226-93v-1c-58-57-94-137-94-226 0-88 36-168 94-226s138-94 226-94zm191 130c-49-49-116-79-191-79-74 0-141 30-190 79-49 48-79 116-79 190 0 75 30 142 79 191s116 79 190 79c75 0 142-30 191-79s79-116 79-191c0-74-30-142-79-190z" fill="#ffffff" opacity="1" data-original="#ffffff" class=""></path><path d="m2473 5962 141-141v282z" fill="#ffffff" opacity="1" data-original="#ffffff" class=""></path><path fill-rule="nonzero" d="M7322 5642c-89 0-169 36-227 94s-93 138-93 226c0 89 35 169 93 226v1c58 57 138 93 227 93 88 0 168-36 226-93v-1c58-57 94-137 94-226 0-88-36-168-94-226s-138-94-226-94zm-191 130c49-49 116-79 191-79 74 0 141 30 190 79 49 48 79 116 79 190 0 75-30 142-79 191s-116 79-190 79c-75 0-142-30-191-79s-79-116-79-191c0-74 30-142 79-190z" fill="#ffffff" opacity="1" data-original="#ffffff" class=""></path><path d="m7429 5962-141-141v282zM3395 6423h1872v73H3395zm0-271h3227v73H3395zm0-270h3227v73H3395zm670-442h1887v187H4065z" fill="#ffffff" opacity="1" data-original="#ffffff" class=""></path></g><path fill="#ff576b" d="M2344 9274h1394v840H2344z" opacity="1" data-original="#ff576b"></path><g fill="#afb0b5"><path d="M2344 10309h943v123h-943zM2344 10565h1117v62H2344zm0 369h840v62h-840zm0-184h1117v61H2344z" fill="#afb0b5" opacity="1" data-original="#afb0b5"></path></g><path fill="#ffc42e" d="M4312 9274h1394v840H4312z" opacity="1" data-original="#ffc42e" class=""></path><g fill="#afb0b5"><path d="M4312 10309h943v123h-943zM4312 10565h1117v62H4312zm0 369h840v62h-840zm0-184h1117v61H4312z" fill="#afb0b5" opacity="1" data-original="#afb0b5"></path></g><path fill="#00dcab" d="M6279 9274h1394v840H6279z" opacity="1" data-original="#00dcab" class=""></path><g fill="#afb0b5"><path d="M6279 10309h943v123h-943zM6279 10565h1117v62H6279zm0 369h841v62h-841zm0-184h1117v61H6279z" fill="#afb0b5" opacity="1" data-original="#afb0b5"></path></g><path fill="#ffffff" d="M10098 8440h1145v173h-1145zM8901 8440h919v173h-919zM8901 9133h1722v173H8901zM10900 9133h919v173h-919z" opacity="1" data-original="#ffffff" class=""></path><path fill="#ffc42e" d="M8901 10113h919v173h-919z" opacity="1" data-original="#ffc42e" class=""></path><path fill="#ffffff" d="M10098 10787h1145v173h-1145zM8901 10787h919v173h-919zM8901 11480h1722v173H8901zM10900 11480h919v173h-919z" opacity="1" data-original="#ffffff" class=""></path><path fill="#ffc42e" d="M8901 4947h1722v173H8901z" opacity="1" data-original="#ffc42e" class=""></path></g></svg>